<svg id="Layer_1" data-name="Layer 1" xmlns="http://www.w3.org/2000/svg" viewBox="0 0 168.74 168.75"><title>skye-niseko-ring</title><path d="M84.37,168.75a3.34,3.34,0,1,1,0-6.67,77.69,77.69,0,0,0,77.7-77.71,3.34,3.34,0,0,1,6.67,0,84.35,84.35,0,0,1-84.37,84.38Z" style="fill:#92b6c7"/><path d="M165.41,87.71a3.33,3.33,0,0,1-3.34-3.34,77.69,77.69,0,0,0-77.7-77.7,3.34,3.34,0,1,1,0-6.67,84.35,84.35,0,0,1,84.37,84.37A3.33,3.33,0,0,1,165.41,87.71Z" style="fill:#603975"/><path d="M3.33,87.71A3.33,3.33,0,0,1,0,84.37,84.35,84.35,0,0,1,84.37,0a3.34,3.34,0,1,1,0,6.67,77.69,77.69,0,0,0-77.7,77.7A3.33,3.33,0,0,1,3.33,87.71Z" style="fill:#a7b0b5"/><path d="M84.37,168.75A84.35,84.35,0,0,1,0,84.37a3.34,3.34,0,0,1,6.67,0,77.69,77.69,0,0,0,77.7,77.71,3.34,3.34,0,1,1,0,6.67Z" style="fill:#a9592f"/><path d="M84.37,168.75a3.34,3.34,0,1,1,0-6.67,77.19,77.19,0,0,0,54.95-22.76A3.34,3.34,0,0,1,144,144,83.82,83.82,0,0,1,84.37,168.75Z" style="fill:#92b6c7"/></svg>