<svg id="Layer_1" data-name="Layer 1" xmlns="http://www.w3.org/2000/svg" viewBox="0 0 397.36 162.08"><title>skye-niseko-wordmark</title><path d="M45.75,102.82h6.41v58.26H46.91L9.3,113.31v47.77H2.89V102.82H9l36.71,46.69Z" style="fill:#231f20"/><path d="M238.6,108.81H203.06V128.7h31.78v6H203.06v20.39h36v6H196.48V102.82H238.6Z" style="fill:#231f20"/><path d="M92.83,102.82v58.26H86.26V102.82Z" style="fill:#231f20"/><path d="M147.56,128.79c13,2.83,19,7.57,19,16.56,0,10.07-8.33,16.56-19.89,16.56-9.24,0-16.81-3.08-23.8-9.32l4.07-4.82c6.08,5.48,11.9,8.23,20,8.23,7.84,0,13-4.08,13-10,0-5.49-2.92-8.58-15.16-11.16-13.39-2.91-19.56-7.23-19.56-16.9,0-9.32,8.08-16,19.14-16a30.38,30.38,0,0,1,20.48,7.16L161,114.22c-5.42-4.41-10.83-6.32-16.82-6.32-7.58,0-12.4,4.16-12.4,9.49C131.75,123,134.75,126,147.56,128.79Z" style="fill:#231f20"/><path d="M367.23,108.39A23.56,23.56,0,1,1,343.67,132a23.58,23.58,0,0,1,23.56-23.56m0-6.57A30.13,30.13,0,1,0,397.36,132a30.13,30.13,0,0,0-30.13-30.13Z" style="fill:#231f20"/><polygon points="317.28 103.08 317.54 102.82 317.01 102.82 309.05 102.82 275.6 137.6 275.6 102.82 269.03 102.82 269.03 142.16 269.03 160.9 269.03 161.08 275.6 161.08 275.6 145.43 317.28 103.08" style="fill:#231f20"/><polygon points="310.39 161.08 318.63 161.08 294.89 131.19 290.34 135.81 310.39 161.08" style="fill:#231f20"/><path d="M262.46,6.83H226.92V26.71h31.79v6H226.92V53.1h36v6H220.35V.83h42.11Z" style="fill:#231f20"/><path d="M24.71,26.8c13,2.83,19,7.57,19,16.56,0,10.07-8.32,16.57-19.88,16.57C14.55,59.93,7,56.84,0,50.6l4.06-4.83C10.15,51.27,16,54,24,54c7.83,0,13-4.08,13-10,0-5.5-2.92-8.57-15.15-11.15C8.48,30,2.32,25.63,2.32,16c0-9.32,8.08-16,19.14-16A30.32,30.32,0,0,1,41.93,7.16l-3.82,5.08C32.7,7.82,27.29,5.9,21.3,5.9c-7.57,0-12.41,4.17-12.41,9.49C8.89,21,11.9,24.05,24.71,26.8Z" style="fill:#231f20"/><polygon points="121.15 1.1 121.41 0.83 120.88 0.83 112.92 0.83 79.46 35.62 79.46 0.83 72.89 0.83 72.89 58.91 72.89 59.09 79.46 59.09 79.46 43.45 121.15 1.1" style="fill:#231f20"/><polygon points="114.26 59.09 122.49 59.09 98.75 29.2 94.2 33.83 114.26 59.09" style="fill:#231f20"/><polygon points="187.87 0.83 168.06 29.96 164.11 24.09 148.42 0.83 140.43 0.83 160.29 29.7 164.65 36.03 164.65 46.67 164.65 59.09 171.3 59.09 171.3 36.87 171.3 35.95 193.08 4.38 195.53 0.83 187.87 0.83" style="fill:#231f20"/></svg>