<?xml version="1.0" encoding="UTF-8"?>
<svg xmlns="http://www.w3.org/2000/svg" id="Layer_1" viewBox="0 0 477.78 296.96">
  <title>skye-niseko-logo</title>
  <path d="M45.75,237.71h6.41V296H46.91L9.3,248.2V296H2.89V237.71H9L45.75,284.4Z" style="fill:#231f20"></path>
  <path d="M238.6,243.7H203.06v19.89h31.78v6H203.06V290h36v6H196.48V237.71H238.6Z" style="fill:#231f20"></path>
  <path d="M92.83,237.71V296H86.26V237.71Z" style="fill:#231f20"></path>
  <path d="M147.56,263.67c13,2.83,19,7.58,19,16.57,0,10.06-8.33,16.56-19.89,16.56-9.24,0-16.81-3.09-23.8-9.33l4.07-4.82c6.08,5.49,11.9,8.24,20,8.24,7.84,0,13-4.08,13-10,0-5.48-2.92-8.57-15.16-11.15-13.39-2.91-19.56-7.24-19.56-16.9,0-9.32,8.08-16,19.14-16A30.43,30.43,0,0,1,164.79,244L161,249.11c-5.42-4.41-10.83-6.32-16.82-6.32-7.58,0-12.4,4.16-12.4,9.48C131.75,257.85,134.75,260.93,147.56,263.67Z" style="fill:#231f20"></path>
  <path d="M367.23,243.28a23.56,23.56,0,1,1-23.56,23.56,23.58,23.58,0,0,1,23.56-23.56m0-6.57a30.13,30.13,0,1,0,30.13,30.13,30.12,30.12,0,0,0-30.13-30.13Z" style="fill:#231f20"></path>
  <polygon points="317.28 237.97 317.54 237.71 317.01 237.71 309.05 237.71 275.6 272.49 275.6 237.71 269.03 237.71 269.03 277.04 269.03 295.78 269.03 295.97 275.6 295.97 275.6 280.32 317.28 237.97" style="fill:#231f20"></polygon>
  <polygon points="310.39 295.97 318.63 295.97 294.89 266.08 290.34 270.7 310.39 295.97" style="fill:#231f20"></polygon>
  <path d="M262.46,141.71H226.92V161.6h31.79v6H226.92V188h36v6H220.35V135.72h42.11Z" style="fill:#231f20"></path>
  <path d="M24.71,161.68c13,2.84,19,7.58,19,16.57,0,10.07-8.32,16.56-19.88,16.56-9.25,0-16.82-3.08-23.8-9.32l4.06-4.83c6.09,5.49,11.92,8.24,20,8.24,7.83,0,13-4.08,13-10,0-5.49-2.92-8.56-15.15-11.15-13.4-2.92-19.56-7.24-19.56-16.89,0-9.32,8.08-16,19.14-16a30.32,30.32,0,0,1,20.47,7.16l-3.82,5.07c-5.41-4.41-10.82-6.33-16.81-6.33-7.57,0-12.41,4.16-12.41,9.49C8.89,155.86,11.9,158.94,24.71,161.68Z" style="fill:#231f20"></path>
  <polygon points="121.15 135.99 121.41 135.72 120.88 135.72 112.92 135.72 79.46 170.5 79.46 135.72 72.89 135.72 72.89 193.79 72.89 193.98 79.46 193.98 79.46 178.33 121.15 135.99" style="fill:#231f20"></polygon>
  <polygon points="114.26 193.98 122.49 193.98 98.75 164.09 94.2 168.72 114.26 193.98" style="fill:#231f20"></polygon>
  <polygon points="187.87 135.72 168.06 164.84 164.11 158.98 148.42 135.72 140.43 135.72 160.29 164.59 164.65 170.92 164.65 181.55 164.65 193.98 171.3 193.98 171.3 171.76 171.3 170.84 193.08 139.27 195.53 135.72 187.87 135.72" style="fill:#231f20"></polygon>
  <path d="M393.41,168.75a3.34,3.34,0,1,1,0-6.67,77.69,77.69,0,0,0,77.7-77.71,3.34,3.34,0,0,1,6.67,0,84.35,84.35,0,0,1-84.37,84.38Z" style="fill:#92b6c7"></path>
  <path d="M474.45,87.71a3.33,3.33,0,0,1-3.34-3.34,77.69,77.69,0,0,0-77.7-77.7,3.34,3.34,0,1,1,0-6.67,84.35,84.35,0,0,1,84.37,84.37A3.33,3.33,0,0,1,474.45,87.71Z" style="fill:#603975"></path>
  <path d="M312.38,87.71A3.33,3.33,0,0,1,309,84.37,84.35,84.35,0,0,1,393.41,0a3.34,3.34,0,1,1,0,6.67,77.69,77.69,0,0,0-77.7,77.7A3.33,3.33,0,0,1,312.38,87.71Z" style="fill:#a7b0b5"></path>
  <path d="M393.41,168.75A84.35,84.35,0,0,1,309,84.37a3.34,3.34,0,0,1,6.67,0,77.69,77.69,0,0,0,77.7,77.71,3.34,3.34,0,1,1,0,6.67Z" style="fill:#a9592f"></path>
  <path d="M393.41,168.75a3.34,3.34,0,1,1,0-6.67,77.19,77.19,0,0,0,54.95-22.76,3.34,3.34,0,1,1,4.72,4.72A83.82,83.82,0,0,1,393.41,168.75Z" style="fill:#92b6c7"></path>
</svg>
